<?xml version="1.0" encoding="utf-8"?>
<!-- Generator: Adobe Illustrator 16.0.0, SVG Export Plug-In . SVG Version: 6.00 Build 0)  -->
<!DOCTYPE svg PUBLIC "-//W3C//DTD SVG 1.1//EN" "http://www.w3.org/Graphics/SVG/1.1/DTD/svg11.dtd">
<svg version="1.1" id="圖層_1" xmlns="http://www.w3.org/2000/svg" xmlns:xlink="http://www.w3.org/1999/xlink" x="0px" y="0px"
	 width="40px" height="40px" viewBox="52.917 0 40 40" enable-background="new 52.917 0 40 40" xml:space="preserve">
<g>
	<g>
		<g>
			<path fill="#C85F72" d="M69.301,8.622l1.655-1.655c1.082-1.081,2.835-1.081,3.917,0l1.654,1.655h1.057l-2.184-2.184
				c-0.664-0.665-1.547-1.03-2.487-1.03s-1.823,0.366-2.487,1.03l-2.184,2.184H69.301z"/>
		</g>
		<g>
			<path fill="#C85F72" d="M62.494,23.221l-1.936-1.937c-1.082-1.081-1.082-2.835,0-3.917l1.936-1.936v-1.057l-2.465,2.464
				c-1.372,1.37-1.372,3.603,0,4.975l2.465,2.465V23.221z"/>
		</g>
		<g>
			<path fill="#C85F72" d="M85.804,16.839l-2.465-2.465v1.058l1.936,1.936c1.082,1.082,1.082,2.836,0,3.917l-1.936,1.938v1.057
				l2.465-2.465c0.665-0.664,1.029-1.547,1.029-2.486C86.833,18.386,86.468,17.503,85.804,16.839z"/>
		</g>
	</g>
	<g>
		
			<linearGradient id="SVGID_1_" gradientUnits="userSpaceOnUse" x1="122.915" y1="-110.4819" x2="122.915" y2="-118.7103" gradientTransform="matrix(1 0 0 -1 -50 -99)">
			<stop  offset="0" style="stop-color:#BD213E"/>
			<stop  offset="1" style="stop-color:#82213E"/>
		</linearGradient>
		<path fill="url(#SVGID_1_)" d="M78.325,9.27c-0.004,0.327-0.017,0.646-0.037,0.957c-0.312,4.7-2.599,7.58-5.373,7.58
			s-5.061-2.88-5.373-7.58c-0.021-0.311-0.033-0.63-0.036-0.957h-6.23c0,2.031,0.614,3.933,1.655,5.568
			c2.09,3.284,5.908,5.492,9.985,5.492c4.077,0,7.895-2.208,9.984-5.492c1.041-1.635,1.655-3.537,1.655-5.568H78.325z"/>
	</g>
	<path fill="#FFFFFF" d="M72.917,19.203c-5.342,0-9.688-4.591-9.688-9.934h-0.735c0,5.748,4.675,10.424,10.423,10.424
		c5.747,0,10.422-4.676,10.422-10.424h-0.735C82.604,14.612,78.257,19.203,72.917,19.203z"/>
	<g>
		
			<linearGradient id="SVGID_2_" gradientUnits="userSpaceOnUse" x1="115.2236" y1="-123.5972" x2="119.43" y2="-126.2612" gradientTransform="matrix(1 0 0 -1 -50 -99)">
			<stop  offset="0" style="stop-color:#BD213E"/>
			<stop  offset="1" style="stop-color:#82213E"/>
		</linearGradient>
		<polygon fill="url(#SVGID_2_)" points="68.175,29.152 69.895,21.977 65.603,21.977 61.736,27.938 67.312,31.498 68.188,29.157 		
			"/>
	</g>
	<g>
		
			<linearGradient id="SVGID_3_" gradientUnits="userSpaceOnUse" x1="133.0938" y1="-123.4399" x2="125.2423" y2="-126.5244" gradientTransform="matrix(1 0 0 -1 -50 -99)">
			<stop  offset="0" style="stop-color:#BD213E"/>
			<stop  offset="1" style="stop-color:#82213E"/>
		</linearGradient>
		<polygon fill="url(#SVGID_3_)" points="80.229,21.977 75.97,21.977 77.689,29.152 77.646,29.164 78.521,31.498 84.095,27.938 		
			"/>
	</g>
	<g>
		
			<linearGradient id="SVGID_4_" gradientUnits="userSpaceOnUse" x1="118.6826" y1="-125.9717" x2="122.917" y2="-125.9717" gradientTransform="matrix(1 0 0 -1 -50 -99)">
			<stop  offset="0" style="stop-color:#BD213E"/>
			<stop  offset="1" style="stop-color:#82213E"/>
		</linearGradient>
		<polygon fill="url(#SVGID_4_)" points="71.073,21.977 70.375,21.977 68.683,29.042 72.917,31.967 72.917,23.216 		"/>
	</g>
	<g>
		
			<linearGradient id="SVGID_5_" gradientUnits="userSpaceOnUse" x1="122.917" y1="-125.9717" x2="127.1787" y2="-125.9717" gradientTransform="matrix(1 0 0 -1 -50 -99)">
			<stop  offset="0" style="stop-color:#BD213E"/>
			<stop  offset="1" style="stop-color:#82213E"/>
		</linearGradient>
		<polygon fill="url(#SVGID_5_)" points="75.489,21.977 74.759,21.977 72.917,23.216 72.917,31.967 77.179,29.025 		"/>
	</g>
</g>
</svg>
