<?xml version="1.0" encoding="utf-8"?>
<!-- Generator: Adobe Illustrator 22.1.0, SVG Export Plug-In . SVG Version: 6.00 Build 0)  -->
<svg version="1.1" id="圖層_1" xmlns="http://www.w3.org/2000/svg" xmlns:xlink="http://www.w3.org/1999/xlink" x="0px" y="0px"
	 viewBox="0 0 194 40" style="enable-background:new 0 0 194 40;" xml:space="preserve">
<style type="text/css">
	.st0{fill:#C85F72;}
	.st1{fill:url(#SVGID_1_);}
	.st2{fill:#FFFFFF;}
	.st3{fill:url(#SVGID_2_);}
	.st4{fill:url(#SVGID_3_);}
	.st5{fill:url(#SVGID_4_);}
	.st6{fill:url(#SVGID_5_);}
	.st7{fill:#595757;}
</style>
<g>
	<g>
		<g>
			<path class="st0" d="M15.4,7.2l1.9-1.9c1.2-1.2,3.2-1.2,4.5,0l1.9,1.9h1.2l-2.5-2.5c-0.8-0.8-1.8-1.2-2.8-1.2
				c-1.1,0-2.1,0.4-2.8,1.2l-2.5,2.5H15.4z"/>
		</g>
		<g>
			<path class="st0" d="M7.6,23.9l-2.2-2.2c-1.2-1.2-1.2-3.2,0-4.5L7.6,15v-1.2l-2.8,2.8c-1.6,1.6-1.6,4.1,0,5.7l2.8,2.8V23.9z"/>
		</g>
		<g>
			<path class="st0" d="M34.2,16.6l-2.8-2.8V15l2.2,2.2c1.2,1.2,1.2,3.2,0,4.5l-2.2,2.2v1.2l2.8-2.8c0.8-0.8,1.2-1.8,1.2-2.8
				C35.4,18.3,34.9,17.3,34.2,16.6z"/>
		</g>
	</g>
	<g>
		<linearGradient id="SVGID_1_" gradientUnits="userSpaceOnUse" x1="19.4792" y1="10.4743" x2="19.4792" y2="19.8591">
			<stop  offset="0" style="stop-color:#BD213E"/>
			<stop  offset="1" style="stop-color:#82213E"/>
		</linearGradient>
		<path class="st1" d="M25.6,8c0,0.4,0,0.7,0,1.1c-0.4,5.4-3,8.6-6.1,8.6c-3.2,0-5.8-3.3-6.1-8.6c0-0.4,0-0.7,0-1.1H6.2
			c0,2.3,0.7,4.5,1.9,6.4c2.4,3.7,6.7,6.3,11.4,6.3c4.6,0,9-2.5,11.4-6.3c1.2-1.9,1.9-4,1.9-6.4H25.6z"/>
	</g>
	<path class="st2" d="M19.5,19.3c-6.1,0-11-5.2-11-11.3H7.6c0,6.6,5.3,11.9,11.9,11.9S31.4,14.5,31.4,8h-0.8
		C30.5,14,25.6,19.3,19.5,19.3z"/>
	<g>
		<linearGradient id="SVGID_2_" gradientUnits="userSpaceOnUse" x1="10.7053" y1="25.4309" x2="15.5021" y2="28.4689">
			<stop  offset="0" style="stop-color:#BD213E"/>
			<stop  offset="1" style="stop-color:#82213E"/>
		</linearGradient>
		<polygon class="st3" points="14.1,30.6 16,22.4 11.1,22.4 6.7,29.2 13.1,33.3 14.1,30.6 		"/>
	</g>
	<g>
		<linearGradient id="SVGID_3_" gradientUnits="userSpaceOnUse" x1="31.0863" y1="25.2524" x2="22.1323" y2="28.7701">
			<stop  offset="0" style="stop-color:#BD213E"/>
			<stop  offset="1" style="stop-color:#82213E"/>
		</linearGradient>
		<polygon class="st4" points="27.8,22.4 23,22.4 24.9,30.6 24.9,30.6 25.9,33.3 32.2,29.2 		"/>
	</g>
	<g>
		<linearGradient id="SVGID_4_" gradientUnits="userSpaceOnUse" x1="14.6513" y1="28.1404" x2="19.4793" y2="28.1404">
			<stop  offset="0" style="stop-color:#BD213E"/>
			<stop  offset="1" style="stop-color:#82213E"/>
		</linearGradient>
		<polygon class="st5" points="17.4,22.4 16.6,22.4 14.7,30.5 19.5,33.8 19.5,23.9 		"/>
	</g>
	<g>
		<linearGradient id="SVGID_5_" gradientUnits="userSpaceOnUse" x1="19.4793" y1="28.1401" x2="24.3404" y2="28.1401">
			<stop  offset="0" style="stop-color:#BD213E"/>
			<stop  offset="1" style="stop-color:#82213E"/>
		</linearGradient>
		<polygon class="st6" points="22.4,22.4 21.6,22.4 19.5,23.9 19.5,33.8 24.3,30.5 		"/>
	</g>
</g>
<g>
	<path class="st7" d="M41.1,12.2h4.4v11.5c0,0.7,0.1,1.3,0.3,1.9c0.2,0.6,0.5,1.1,0.9,1.6c0.4,0.5,0.9,0.8,1.4,1.1
		c0.6,0.3,1.2,0.4,1.9,0.4c0.7,0,1.3-0.1,1.9-0.4c0.6-0.3,1-0.6,1.4-1.1c0.4-0.5,0.7-1,0.9-1.6c0.2-0.6,0.3-1.2,0.3-1.9V12.2h2.8
		v11.5c0,0.9-0.2,1.8-0.5,2.6s-0.8,1.5-1.5,2.1s-1.5,1.1-2.6,1.5c-1,0.4-2.3,0.5-3.8,0.5c-1.3,0-2.5-0.2-3.5-0.5
		c-1-0.4-1.8-0.8-2.5-1.5c-0.7-0.6-1.2-1.3-1.5-2.2c-0.3-0.8-0.5-1.7-0.5-2.6V12.2z"/>
	<path class="st7" d="M67.8,20.9c0-0.3,0-0.6-0.1-0.9c-0.1-0.3-0.2-0.5-0.3-0.7c-0.1-0.2-0.3-0.3-0.4-0.4c-0.2-0.1-0.3-0.1-0.5-0.1
		c-0.2,0-0.4,0-0.6,0.1c-0.2,0.1-0.5,0.2-0.7,0.3c-0.2,0.1-0.5,0.3-0.8,0.5c-0.3,0.2-0.5,0.4-0.7,0.6v9.8h-4.1V17.8l2.9-1.5h1.2v1.4
		c0.6-0.5,1.3-0.8,2-1c0.7-0.2,1.4-0.3,2.1-0.3c0.6,0,1.1,0.1,1.6,0.3c0.5,0.2,0.9,0.5,1.3,0.9c0.4,0.4,0.7,0.8,0.9,1.3
		c0.2,0.5,0.3,1,0.3,1.6v9.6h-4.1V20.9z"/>
	<path class="st7" d="M73.8,11.9c0-0.3,0.1-0.5,0.2-0.8c0.1-0.2,0.3-0.5,0.5-0.6c0.2-0.2,0.4-0.3,0.7-0.4c0.3-0.1,0.5-0.2,0.9-0.2
		c0.3,0,0.6,0.1,0.9,0.2c0.3,0.1,0.5,0.2,0.7,0.4c0.2,0.2,0.4,0.4,0.5,0.6c0.1,0.2,0.2,0.5,0.2,0.8c0,0.3-0.1,0.5-0.2,0.8
		c-0.1,0.2-0.3,0.4-0.5,0.6c-0.2,0.2-0.4,0.3-0.7,0.4c-0.3,0.1-0.6,0.2-0.9,0.2c-0.3,0-0.6-0.1-0.9-0.2c-0.3-0.1-0.5-0.2-0.7-0.4
		c-0.2-0.2-0.4-0.4-0.5-0.6C73.9,12.4,73.8,12.2,73.8,11.9z M74,17.8l2.9-1.5h1.2v13.7H74V17.8z"/>
	<path class="st7" d="M89.4,13.7c-0.1-0.2-0.1-0.4-0.2-0.7c-0.1-0.3-0.2-0.5-0.4-0.8c-0.2-0.3-0.4-0.5-0.6-0.6
		c-0.3-0.2-0.6-0.3-0.9-0.3c-0.4,0-0.7,0.2-0.9,0.5c-0.2,0.4-0.3,0.9-0.3,1.6v3.2h3.4v1.6H86v11.8h-4.1V18.2h-2.6v-1.6h2.6v-1.5
		c0-0.7,0.1-1.4,0.4-2c0.3-0.6,0.7-1.2,1.2-1.7c0.5-0.5,1.1-0.9,1.8-1.2c0.7-0.3,1.4-0.4,2.2-0.4c0.7,0,1.2,0.1,1.7,0.3
		c0.5,0.2,0.9,0.4,1.2,0.7c0.3,0.3,0.6,0.5,0.8,0.8c0.2,0.3,0.4,0.5,0.5,0.8L89.4,13.7z"/>
	<path class="st7" d="M96.8,30.3c-1.1,0-2.1-0.2-3-0.5c-0.9-0.4-1.7-0.8-2.4-1.4c-0.7-0.6-1.2-1.3-1.6-2.2c-0.4-0.8-0.6-1.7-0.6-2.7
		c0-1,0.2-2,0.6-2.9c0.4-0.9,0.9-1.6,1.5-2.3c0.7-0.6,1.4-1.1,2.3-1.5c0.9-0.4,1.9-0.5,3-0.5s2.1,0.2,3,0.5c0.9,0.3,1.7,0.8,2.4,1.4
		c0.7,0.6,1.2,1.3,1.6,2.1c0.4,0.8,0.6,1.7,0.6,2.6c0,1-0.2,1.9-0.6,2.8c-0.4,0.9-0.9,1.6-1.6,2.3c-0.7,0.7-1.4,1.2-2.4,1.6
		C98.8,30.1,97.8,30.3,96.8,30.3z M97.2,28.7c0.4,0,0.7-0.1,1-0.4c0.3-0.2,0.6-0.6,0.8-1c0.2-0.4,0.4-0.9,0.5-1.4
		c0.1-0.5,0.2-1.1,0.2-1.7c0-0.9-0.1-1.7-0.2-2.4c-0.1-0.8-0.3-1.4-0.6-2c-0.3-0.6-0.7-1-1.1-1.4c-0.5-0.3-1-0.5-1.7-0.5
		c-0.3,0-0.6,0.1-0.9,0.4c-0.3,0.2-0.6,0.6-0.8,1s-0.4,0.9-0.5,1.4c-0.1,0.5-0.2,1.1-0.2,1.6c0,0.9,0.1,1.7,0.2,2.5
		c0.2,0.8,0.4,1.4,0.7,2c0.3,0.6,0.7,1,1.1,1.4C96.2,28.5,96.7,28.7,97.2,28.7z"/>
	<path class="st7" d="M114.5,19.4c-0.2-0.2-0.4-0.3-0.5-0.4c-0.2-0.1-0.3-0.2-0.5-0.3c-0.1-0.1-0.3-0.1-0.5-0.2c-0.2,0-0.3,0-0.5,0
		c-0.3,0-0.6,0-0.8,0.1c-0.3,0.1-0.5,0.2-0.8,0.4c-0.2,0.2-0.4,0.4-0.6,0.6c-0.2,0.2-0.3,0.4-0.4,0.7v9.7h-4.1V17.8l2.9-1.5l1.2,1.3
		c0.4-0.5,0.9-0.8,1.5-1.1c0.5-0.3,1.1-0.4,1.7-0.4c0.6,0,1.1,0.1,1.6,0.4c0.5,0.2,0.9,0.5,1.2,0.8L114.5,19.4z"/>
	<path class="st7" d="M133.4,20.9c0-0.3,0-0.6-0.1-0.8c-0.1-0.3-0.2-0.5-0.3-0.7c-0.1-0.2-0.3-0.4-0.5-0.5c-0.2-0.1-0.4-0.2-0.6-0.2
		c-0.2,0-0.5,0-0.7,0.1c-0.3,0.1-0.5,0.2-0.8,0.3c-0.2,0.1-0.5,0.3-0.7,0.5c-0.2,0.2-0.4,0.4-0.6,0.6v9.9h-4v-9.1
		c0-0.3,0-0.6-0.1-0.8c-0.1-0.3-0.2-0.5-0.3-0.7c-0.1-0.2-0.3-0.4-0.5-0.5c-0.2-0.1-0.4-0.2-0.5-0.2c-0.2,0-0.5,0-0.7,0.1
		c-0.2,0.1-0.5,0.2-0.7,0.3c-0.2,0.1-0.5,0.3-0.7,0.5c-0.2,0.2-0.4,0.4-0.6,0.6v9.9h-4.1V17.8l2.9-1.5h1.2v1.5c0.6-0.4,1.3-0.8,2-1
		c0.7-0.3,1.3-0.4,2-0.4c0.4,0,0.7,0,1.1,0.1c0.4,0.1,0.7,0.2,1,0.3c0.3,0.1,0.6,0.3,0.9,0.5c0.3,0.2,0.5,0.4,0.7,0.7
		c0.3-0.2,0.6-0.5,1-0.7c0.4-0.2,0.8-0.4,1.2-0.5c0.4-0.1,0.8-0.3,1.2-0.3c0.4-0.1,0.8-0.1,1.3-0.1c0.6,0,1.1,0.1,1.6,0.3
		c0.5,0.2,1,0.5,1.3,0.9c0.4,0.4,0.7,0.8,0.9,1.4c0.2,0.5,0.3,1.1,0.3,1.7v9.4h-4.1V20.9z"/>
	<path class="st7" d="M139.8,12.2h4.3l6.2,12.2l6.1-12.2h4.2v17.8h-4.4V18.4l-5.8,11.6h-1.7l-6-11.8v11.8h-2.8V12.2z"/>
	<path class="st7" d="M162,20c0.1-0.6,0.4-1.1,0.7-1.5c0.4-0.5,0.8-0.9,1.3-1.2c0.5-0.3,1.1-0.6,1.8-0.7c0.7-0.2,1.4-0.3,2.2-0.3
		c1,0,1.8,0.1,2.5,0.3c0.7,0.2,1.3,0.4,1.7,0.7c0.5,0.3,0.8,0.7,1,1.2c0.2,0.5,0.3,1,0.3,1.5v7.7c0,0.6,0.2,1,0.5,1.4
		c0.3,0.4,0.8,0.7,1.4,1h-4.8c-0.1,0-0.3,0-0.4-0.1c-0.1-0.1-0.2-0.2-0.4-0.3c-0.1-0.1-0.2-0.3-0.3-0.4c-0.1-0.1-0.1-0.3-0.2-0.4
		c-0.2,0.2-0.5,0.4-0.7,0.6c-0.2,0.2-0.5,0.3-0.7,0.5c-0.3,0.1-0.6,0.2-0.9,0.3c-0.3,0.1-0.7,0.1-1.2,0.1c-0.6,0-1.2-0.1-1.7-0.3
		c-0.5-0.2-0.9-0.4-1.3-0.7c-0.3-0.3-0.6-0.7-0.8-1.1c-0.2-0.4-0.3-0.9-0.3-1.4c0-0.8,0.2-1.4,0.6-2c0.4-0.6,1-1,1.7-1.4
		c0.7-0.4,1.5-0.8,2.4-1.1c0.9-0.3,1.8-0.6,2.7-0.9v-1.3c0-0.4,0-0.8-0.1-1.1c-0.1-0.3-0.2-0.5-0.4-0.7c-0.2-0.2-0.3-0.3-0.6-0.4
		c-0.2-0.1-0.5-0.1-0.7-0.1c-0.3,0-0.6,0.1-0.9,0.2c-0.3,0.1-0.5,0.3-0.7,0.5c-0.2,0.2-0.3,0.5-0.4,0.7c-0.1,0.3-0.2,0.6-0.3,0.9
		H162z M169.5,23.1c-0.4,0.2-0.8,0.4-1.2,0.6c-0.4,0.2-0.8,0.5-1.1,0.8c-0.3,0.3-0.6,0.6-0.8,1c-0.2,0.4-0.3,0.7-0.3,1.1
		c0,0.4,0.1,0.8,0.3,1.1c0.2,0.3,0.5,0.4,0.9,0.4c0.3,0,0.7-0.1,1-0.3c0.3-0.2,0.7-0.5,1.1-0.8V23.1z"/>
	<path class="st7" d="M176.5,17.8l2.9-1.5h1.2v1.4c0.5-0.4,1-0.7,1.6-1c0.6-0.2,1.3-0.4,2.1-0.4c0.9,0,1.6,0.2,2.3,0.5
		c0.7,0.3,1.3,0.8,1.8,1.4c0.5,0.6,0.9,1.2,1.2,2c0.3,0.8,0.4,1.6,0.4,2.4c0,1.1-0.2,2.1-0.5,3.1c-0.3,0.9-0.8,1.7-1.4,2.4
		c-0.6,0.7-1.3,1.2-2.2,1.6c-0.9,0.4-1.8,0.6-2.9,0.6c-0.5,0-1,0-1.4-0.1c-0.4,0-0.8-0.1-1.1-0.3v5.8h-4.1V17.8z M180.6,26.3
		c0,0.3,0.1,0.6,0.2,0.9c0.1,0.3,0.3,0.5,0.5,0.7c0.2,0.2,0.5,0.4,0.8,0.5c0.3,0.1,0.7,0.2,1,0.2c0.3,0,0.7-0.1,1-0.3
		c0.3-0.2,0.6-0.6,0.8-1c0.2-0.4,0.4-0.9,0.6-1.5c0.1-0.6,0.2-1.2,0.2-1.9c0-0.9-0.1-1.6-0.2-2.3c-0.1-0.7-0.3-1.2-0.5-1.6
		c-0.2-0.4-0.5-0.8-0.8-1c-0.3-0.2-0.6-0.3-1-0.3c-0.3,0-0.5,0-0.7,0.1c-0.2,0.1-0.5,0.2-0.7,0.4c-0.2,0.2-0.4,0.3-0.6,0.5
		c-0.2,0.2-0.4,0.4-0.5,0.6V26.3z"/>
</g>
</svg>
